<?xml version="1.0" encoding="UTF-8" standalone="no"?>
<!-- Created with Inkscape (http://www.inkscape.org/) -->

<svg
   width="512"
   height="512"
   viewBox="0 0 512 512"
   version="1.1"
   id="svg5"
   inkscape:version="1.2.2 (b0a8486541, 2022-12-01)"
   sodipodi:docname="king.svg"
   xmlns:inkscape="http://www.inkscape.org/namespaces/inkscape"
   xmlns:sodipodi="http://sodipodi.sourceforge.net/DTD/sodipodi-0.dtd"
   xmlns="http://www.w3.org/2000/svg"
   xmlns:svg="http://www.w3.org/2000/svg">
  <sodipodi:namedview
     id="namedview7"
     pagecolor="#505050"
     bordercolor="#eeeeee"
     borderopacity="1"
     inkscape:showpageshadow="0"
     inkscape:pageopacity="0"
     inkscape:pagecheckerboard="0"
     inkscape:deskcolor="#505050"
     inkscape:document-units="px"
     showgrid="false"
     inkscape:zoom="1.5910374"
     inkscape:cx="199.24107"
     inkscape:cy="254.23664"
     inkscape:window-width="1896"
     inkscape:window-height="1014"
     inkscape:window-x="0"
     inkscape:window-y="0"
     inkscape:window-maximized="1"
     inkscape:current-layer="layer1" />
  <defs
     id="defs2" />
  <g
     inkscape:label="Layer 1"
     inkscape:groupmode="layer"
     id="layer1">
    <path
       id="rect493"
       style="fill:#ffffff;stroke:#000000;stroke-width:15;stroke-linecap:round;stroke-linejoin:round;stroke-opacity:0.966667"
       d="m 228.72656,91.904297 v 44.417973 h -44.41797 v 54.54687 h 44.41797 v 45.84961 c -34.59929,-11.3687 -83.68084,-57.49738 -122.84765,-27.35742 -86.502124,66.56579 100.25,236.36719 100.25,236.36719 h 97.40429 c 0,0 202.09105,-168.75716 109.65353,-236.36719 -44.2186,-32.34207 -95.04344,16.35839 -129.91329,27.61914 v -46.11133 h 44.41797 V 136.32227 H 283.27344 V 91.904297 Z M 182.66602,262.58594 c 21.00885,-0.11974 47.14719,15.12347 52.98242,31.98242 7.19496,20.78753 5.75,54.89453 5.75,54.89453 0,0 -51.38992,-5.90946 -66.91602,-21.43555 -17.128,-17.128 -27.23924,-52.62178 -5.22851,-62.73437 3.98939,-1.83289 8.5639,-2.6794 13.41211,-2.70703 z m 154.12109,0 c 4.8482,0.0276 9.42466,0.87414 13.41406,2.70703 22.01075,10.11259 11.8995,45.60636 -5.22851,62.73437 -15.52612,15.52611 -66.91797,21.43555 -66.91797,21.43555 0,0 -1.44302,-34.10697 5.75195,-54.89453 5.83522,-16.85896 31.97158,-32.10216 52.98047,-31.98242 z"
       sodipodi:nodetypes="ccccccsccscccccccsscsssssscss" />
    <path
       id="rect2713"
       style="fill:#ffffff;stroke:#000000;stroke-width:15;stroke-linecap:round;stroke-linejoin:round;stroke-opacity:0.966667"
       d="m 141.33856,368.0334 c 74.60778,19.99109 158.84533,19.97306 233.38579,0 29.84898,-7.99801 83.56839,92.70582 0,92.70582 H 141.33856 c -92.972704,0 -29.84898,-100.70383 0,-92.70582 z"
       sodipodi:nodetypes="sssss" />
  </g>
</svg>
