<?xml version="1.0" encoding="UTF-8" standalone="no"?>
<!-- Created with Inkscape (http://www.inkscape.org/) -->

<svg
   width="512"
   height="512"
   viewBox="0 0 512 512"
   version="1.1"
   id="svg5"
   inkscape:version="1.2.2 (b0a8486541, 2022-12-01)"
   sodipodi:docname="tower.svg"
   xmlns:inkscape="http://www.inkscape.org/namespaces/inkscape"
   xmlns:sodipodi="http://sodipodi.sourceforge.net/DTD/sodipodi-0.dtd"
   xmlns="http://www.w3.org/2000/svg"
   xmlns:svg="http://www.w3.org/2000/svg">
  <sodipodi:namedview
     id="namedview7"
     pagecolor="#505050"
     bordercolor="#eeeeee"
     borderopacity="1"
     inkscape:showpageshadow="0"
     inkscape:pageopacity="0"
     inkscape:pagecheckerboard="0"
     inkscape:deskcolor="#505050"
     inkscape:document-units="px"
     showgrid="false"
     inkscape:zoom="1.5985414"
     inkscape:cx="118.23279"
     inkscape:cy="220.51353"
     inkscape:window-width="1896"
     inkscape:window-height="1014"
     inkscape:window-x="0"
     inkscape:window-y="0"
     inkscape:window-maximized="1"
     inkscape:current-layer="layer1" />
  <defs
     id="defs2" />
  <g
     inkscape:label="Layer 1"
     inkscape:groupmode="layer"
     id="layer1">
    <path
       id="rect1877"
       style="fill:#ffffff;stroke:#000000;stroke-width:15.0604;stroke-linecap:round;stroke-linejoin:round;stroke-opacity:0.966667"
       d="m 184.43001,161.23888 139.18806,0.58071 c 0,0 -7.9334,165.17314 39.20193,198.74427 41.65688,29.66922 -250.52575,36.45226 -214.65389,0 46.15424,-46.901 36.2639,-199.32498 36.2639,-199.32498 z"
       sodipodi:nodetypes="ccssc" />
    <path
       id="rect2713"
       style="fill:#ffffff;stroke:#000000;stroke-width:15;stroke-linecap:round;stroke-linejoin:round;stroke-opacity:0.966667"
       d="m 141.33856,368.03352 c 74.60778,19.99109 158.84533,19.97306 233.38579,0 29.84898,-7.99801 83.56839,92.70582 0,92.70582 H 141.33856 c -92.972705,0 -29.84898,-100.70383 0,-92.70582 z"
       sodipodi:nodetypes="sssss" />
    <path
       id="rect443"
       style="fill:#ffffff;stroke:#000000;stroke-width:15;stroke-linecap:round;stroke-linejoin:round;stroke-opacity:0.966667"
       d="m 123.51472,43.457587 h 16.56066 l 16.56066,35.611078 h 16.56066 l 16.56066,-35.611078 h 16.56066 l 16.56066,35.611078 h 16.56066 L 256,43.457587 272.56066,79.068665 h 16.56066 l 16.56066,-35.611078 h 16.56066 l 16.56066,35.611078 h 16.56066 l 16.56066,-35.611078 h 16.56066 c 0,0 44.03089,100.224153 0,144.255043 -44.03089,44.03089 -220.93967,44.03089 -264.97056,0 -44.030894,-44.03089 0,-144.255043 0,-144.255043 z"
       sodipodi:nodetypes="ccccccccccccccccczzc" />
  </g>
</svg>
